# AST/ASF file generated using VICON BodyLanguage
# -----------------------------------------------
:version 1.10
:name VICON
:units
  mass 1.0
  length 0.45
  angle deg
:documentation
   .ast/.asf automatically generated from VICON data using
   VICON BodyBuilder and BodyLanguage model FoxedUp or BRILLIANT.MOD
:root
   order TX TY TZ RX RY RZ
   axis XYZ
   position 0 0 0  
   orientation 0 0 0 
:bonedata
  begin
     id 1 
     name lhipjoint
     direction 0.734343 -0.627749 0.258209 
     length 2.5437 
     axis 0 0 0  XYZ
  end
  begin
     id 2 
     name lfemur
     direction 0.34202 -0.939693 0  
     length 6.7391  
     axis 0 0 20  XYZ
    dof rx ry rz
    limits (-160.0 20.0)
           (-70.0 70.0)
           (-60.0 70.0)
  end
  begin
     id 3 
     name ltibia
     direction 0.34202 -0.939693 0   
     length 7.21536   
     axis 0 0 20   XYZ
    dof rx
    limits (-10.0 170.0)
  end
  begin
     id 4 
     name lfoot
     direction 0.0489572 -0.134509 0.989702   
     length 1.61313   
     axis -90 7.62852e-016 20   XYZ
    dof rx rz
    limits (-45.0 90.0)
           (-70.0 20.0)
  end
  begin
     id 5 
     name ltoes
     direction 1.53451e-011 -4.21692e-011 1   
     length 0.823104   
     axis -90 7.62852e-016 20   XYZ
    dof rx
    limits (-90.0 20.0)
  end
  begin
     id 6 
     name rhipjoint
     direction -0.746398 -0.615468 0.253157   
     length 2.59446  
     axis 0 0 0  XYZ 
  end
  begin
     id 7 
     name rfemur
     direction -0.34202 -0.939693 0   
     length 6.7075   
     axis 0 0 -20   XYZ
    dof rx ry rz
    limits (-160.0 20.0)
           (-70.0 70.0)
           (-70.0 60.0)
  end
  begin
     id 8 
     name rtibia
     direction -0.34202 -0.939693 0   
     length 7.27262   
     axis 0 0 -20   XYZ
    dof rx
    limits (-10.0 170.0)
 end
 begin
     id 9 
     name rfoot
     direction -0.0455203 -0.125066 0.991104   
     length 1.91095  
     axis -90 -7.62852e-016 -20   XYZ
    dof rx rz
    limits (-45.0 90.0)
           (-20.0 70.0)
  end
  begin
     id 10 
     name rtoes
     direction -1.53601e-011 -4.21913e-011 1   
     length 0.969037   
     axis -90 -7.62852e-016 -20   XYZ
    dof rx
    limits (-90.0 20.0)
  end
  begin
     id 11 
     name lowerback
     direction 0.0181546 0.999122 -0.0377542   
     length 1.99916   
     axis 0 0 0   XYZ
    dof rx ry rz
    limits (-20.0 45.0)
           (-30.0 30.0)
           (-30.0 30.0)
  end
  begin
     id 12 
     name upperback
     direction 0.0203486 0.99589 0.0882534   
     length 1.951   
     axis 0 0 0   XYZ
    dof rx ry rz
    limits (-20.0 45.0)
           (-30.0 30.0)
           (-30.0 30.0)
  end
  begin
     id 13 
     name thorax
     direction 0.0131685 0.994241 0.106355   
     length 1.97461   
     axis 0 0 0   XYZ
    dof rx ry rz
    limits (-20.0 45.0)
           (-30.0 30.0)
           (-30.0 30.0)
  end
  begin
     id 14 
     name lowerneck
     direction -0.0281395 0.999325 0.023617   
     length 1.7959   
     axis 0 0 0   XYZ
    dof rx ry rz
    limits (-20.0 45.0)
           (-30.0 30.0)
           (-30.0 30.0)
  end
  begin
     id 15 
     name upperneck
     direction 0.0288721 0.991984 -0.123019   
     length 1.79917   
     axis 0 0 0   XYZ
    dof rx ry rz
    limits (-20.0 45.0)
           (-30.0 30.0)
           (-30.0 30.0)
  end
  begin
     id 16
     name head
     direction 0.0133797 0.998944 -0.0439492  
     length 1.80902  
     axis 0 0 0   XYZ
    dof rx ry rz
    limits (-20.0 45.0)
           (-30.0 30.0)
           (-30.0 30.0)
  end
  begin
     id 17 
     name lclavicle
     direction 0.919195 0.377107 0.113449  
     length 3.17815  
     axis 0 0 0   XYZ
    dof ry rz
    limits (-20.0 10.0)
           (0.0 20.0)
  end
  begin
     id 18 
     name lhumerus
     direction 1 -4.48959e-011 2.13129e-027   
     length 4.84137   
     axis 180 -30 -90   XYZ
    dof rx ry rz
    limits (-60.0 90.0)
           (-90.0 90.0)
           (-90.0 90.0)
  end
  begin
     id 19
     name lradius
     direction 1 -4.48957e-011 -6.30627e-028   
     length 3.2452   
     axis 180 -30 -90   XYZ
    dof rx
    limits (-10.0 170.0)
  end
  begin
     id 20
     name lwrist
     direction 1 -4.4901e-011 9.13299e-027   
     length 1.6226   
     axis -6.84618e-015 90 90   XYZ
    dof ry
    limits (-180.0 0.0)
 end
  begin
     id 21 
     name lhand
     direction 1 -4.48816e-011 1.82293e-026   
     length 0.521221   
     axis -1.16502e-014 90 90   XYZ
    dof rx rz
    limits (-90.0 90.0)
           (-45.0 45.0)
  end
  begin
     id 22 
     name lfingers
     direction 1 -4.49108e-011 3.65687e-026   
     length 0.420221   
     axis -2.33008e-014 90 90   XYZ
    dof rx
    limits (0.0 90.0)
  end
  begin
     id 23
     name lthumb
     direction 0.707107 -6.34943e-011 0.707107   
     length 0.603356   
     axis -90 45 5.69224e-014   XYZ
    dof rx rz
    limits (-45.0 45.0)
           (-45.0 45.0)
  end
  begin
     id 24 
     name rclavicle
     direction -0.90847 0.38596 0.160368   
     length 3.12973  
     axis 0 0 0   XYZ 
    dof ry rz
    limits (-10.0 20.0)
           (-20.0 0.0)
  end
  begin
     id 25 
     name rhumerus
     direction -1 -4.48974e-011 4.47268e-028  
     length 4.72284   
     axis 180 30 90   XYZ
    dof rx ry rz
    limits (-90.0 60.0)
           (-90.0 90.0)
           (-90.0 90.0)
  end
  begin
     id 26 
     name rradius
     direction -1 -4.48969e-011 3.43203e-027   
     length 3.23459   
     axis 180 30 90   XYZ
    dof rx
    limits (-10.0 170.0)
  end
  begin
     id 27 
     name rwrist
     direction -1 -4.48969e-011 9.12911e-027   
     length 1.6173   
     axis -6.84618e-015 -90 -90   XYZ
    dof ry
    limits (-180.0 0.0)
  end
  begin
     id 28
     name rhand
     direction -1 -4.49194e-011 1.83006e-026   
     length 0.307416   
     axis -1.16502e-014 -90 -90   XYZ
    dof rx rz
    limits (-90.0 90.0)
           (-45.0 45.0)
  end
  begin
     id 29
     name rfingers
     direction -1 -4.48423e-011 3.63103e-026   
     length 0.247847   
     axis -2.33008e-014 -90 -90   XYZ
    dof rx
    limits (0.0 90.0)
  end
  begin
     id 30
     name rthumb
     direction -0.707107 -6.34802e-011 0.707107   
     length 0.35586   
     axis -90 -45 -5.69224e-014   XYZ
    dof rx rz
    limits (-45.0 45.0)
           (-45.0 45.0)
  end
:hierarchy
  begin
    root lhipjoint rhipjoint lowerback
    lhipjoint lfemur
    lfemur ltibia
    ltibia lfoot
    lfoot ltoes
    rhipjoint rfemur
    rfemur rtibia
    rtibia rfoot
    rfoot rtoes
    lowerback upperback
    upperback thorax
    thorax lowerneck lclavicle rclavicle
    lowerneck upperneck
    upperneck head
    lclavicle lhumerus
    lhumerus lradius
    lradius lwrist
    lwrist lhand lthumb
    lhand lfingers
    rclavicle rhumerus
    rhumerus rradius
    rradius rwrist
    rwrist rhand rthumb
    rhand rfingers
  end

#!OML:ASF H:\Terrain\Patient Classification 1\Animal1\Tuesday\Animal1.ASF
:FULLY-SPECIFIED
:DEGREES
574
root 14.1042 15.0912 -13.9605 1.27855 28.7892 -0.860887
lowerback 12.1062 -1.52467 -1.97114
upperback 8.70526 -2.06021 0.77445
thorax 2.44436 -1.08804 2.11211
lowerneck 5.511 2.67325 -9.29853
upperneck -0.39195 3.26574 12.4208
head -1.39244 1.45539 5.17699
rclavicle 3.98066e-014 7.35503e-015
rhumerus 61.291 -4.53935 -41.3742
rradius 82.9808
rwrist -1.57208
rhand 27.1531 3.87907
rfingers 7.12502
rthumb 51.1302 -16.7294
lclavicle 3.98066e-014 7.35503e-015
lhumerus 29.1359 -30.702 59.2526
lradius 85.107
lwrist -51.9183
lhand 40.2219 59.0597
lfingers 7.12502
lthumb 62.5789 69.8137
rfemur -40.9522 7.39195 11.2174
rtibia 49.0466
rfoot -7.20963 -12.2938
rtoes -6.35853
lfemur -27.0029 -2.6724 -19.0166
ltibia 55.9276
lfoot -29.2202 10.3907
ltoes -18.0798
575
root 14.1063 15.0968 -13.9586 1.29424 28.6854 -0.674388
lowerback 12.0167 -1.50674 -2.06201
upperback 8.70226 -2.04378 0.689172
thorax 2.48868 -1.08223 2.07003
lowerneck 6.02979 2.70699 -9.23399
upperneck -0.704831 3.30042 12.3261
head -1.57001 1.45383 5.12954
rclavicle 3.52843e-014 -2.38542e-015
rhumerus 60.8451 -4.86354 -40.2139
rradius 81.8505
rwrist -2.15231
rhand 25.9122 4.94762
rfingers 7.12502
rthumb 49.9973 -16.2765
lclavicle 3.52843e-014 -2.38542e-015
lhumerus 29.6506 -30.6213 57.7206
lradius 84.9851
lwrist -51.4244
lhand 40.0386 58.5271
lfingers 7.12502
lthumb 62.4272 69.4787
rfemur -40.8739 7.44607 11.0549
rtibia 49.0089
rfoot -7.10723 -12.269
rtoes -7.9321
lfemur -26.8078 -2.5813 -19.2221
ltibia 55.801
lfoot -29.2645 10.8651
ltoes -18.5394
576
root 14.1095 15.0994 -13.9557 1.28391 28.6092 -0.625959
lowerback 11.959 -1.51171 -2.08095
upperback 8.66726 -2.05289 0.703628
thorax 2.48436 -1.08825 2.09535
lowerneck 6.44974 2.7682 -9.39685
upperneck -0.996663 3.36385 12.3536
head -1.73477 1.46872 5.15822
rclavicle -1.74434e-014 1.09332e-015
rhumerus 60.365 -5.28074 -38.8575
rradius 80.6043
rwrist -2.7719
rhand 26.475 4.12451
rfingers 7.12502
rthumb 50.5118 -16.8253
lclavicle -1.74434e-014 1.09332e-015
lhumerus 29.9533 -30.0948 56.3727
lradius 84.6867
lwrist -50.6205
lhand 40.2295 57.3174
lfingers 7.12502
lthumb 62.5852 68.0631
rfemur -40.8468 7.40834 11.0336
rtibia 48.9998
rfoot -7.24924 -12.1752
rtoes -7.52516
lfemur -26.6945 -2.54533 -19.2889
ltibia 55.723
lfoot -29.2686 11.1983
ltoes -19.0856
577
root 14.1117 15.0975 -13.9534 1.20127 28.5575 -0.661858
lowerback 12.0608 -1.52986 -2.02126
upperback 8.5778 -2.07546 0.707469
thorax 2.33317 -1.09507 2.07267
lowerneck 6.8029 2.845 -9.4824
upperneck -1.11058 3.4468 12.4408
head -1.83898 1.49599 5.1927
rclavicle -1.48095e-014 -4.87022e-015
rhumerus 59.8748 -5.77335 -37.4309
rradius 78.9088
rwrist -3.18517
rhand 24.7857 2.93388
rfingers 7.12502
rthumb 48.9644 -18.8161
lclavicle -1.48095e-014 -4.87022e-015
lhumerus 30.1897 -29.275 55.1715
lradius 84.1315
lwrist -49.3552
lhand 40.5238 56.3747
lfingers 7.12502
lthumb 62.8279 66.7981
rfemur -40.7903 7.38551 11.1114
rtibia 49.0288
rfoot -7.46074 -12.2342
rtoes -6.16526
lfemur -26.5963 -2.56536 -19.2668
ltibia 55.7027
lfoot -29.242 11.2555
ltoes -19.5535
578
root 14.1106 15.0926 -13.9496 1.18797 28.5159 -0.704953
lowerback 12.0274 -1.54951 -2.01401
upperback 8.52245 -2.10222 0.714012
thorax 2.2936 -1.10803 2.07784
lowerneck 7.21948 2.91565 -9.4734
upperneck -1.31042 3.53012 12.4858
head -1.97639 1.52061 5.19724
rclavicle -1.8487e-014 1.08338e-014
rhumerus 59.4201 -6.49129 -35.905
rradius 76.6749
rwrist -3.4254
rhand 21.4355 3.57532
rfingers 7.12502
rthumb 45.87 -19.5732
lclavicle -1.8487e-014 1.08338e-014
lhumerus 30.5401 -28.2158 53.9257
lradius 83.3751
lwrist -47.7054
lhand 40.2807 56.6296
lfingers 7.12502
lthumb 62.6275 67.3196
rfemur -40.8012 7.42406 11.1879
rtibia 49.0632
rfoot -7.47995 -12.3868
rtoes -6.07158
lfemur -26.6049 -2.59793 -19.2191
ltibia 55.7445
lfoot -29.2565 11.5046
ltoes -19.9873
579
root 14.1086 15.0881 -13.9445 1.22018 28.4489 -0.85442
lowerback 11.8255 -1.56774 -1.93099
upperback 8.47725 -2.1186 0.733052
thorax 2.35215 -1.11441 2.04699
lowerneck 7.68914 2.99133 -9.40165
upperneck -1.53762 3.62221 12.4731
head -2.12911 1.54832 5.17214
rclavicle -1.79403e-014 -1.11319e-014
rhumerus 58.764 -7.43608 -34.3941
rradius 74.21
rwrist -3.7672
rhand 19.2214 4.25923
rfingers 7.12502
rthumb 43.8091 -19.6945
lclavicle -1.79403e-014 -1.11319e-014
lhumerus 30.7194 -26.8398 52.6687
lradius 82.6195
lwrist -45.9113
lhand 39.755 57.5123
lfingers 7.12502
lthumb 62.1918 68.7654
rfemur -40.9412 7.50899 11.3237
rtibia 49.0901
rfoot -7.57574 -12.3874
rtoes -6.46275
lfemur -26.7242 -2.58889 -19.0473
ltibia 55.8275
lfoot -29.4066 11.2533
ltoes -18.4041
580
root 14.1063 15.083 -13.9381 1.12088 28.3338 -1.05141
lowerback 11.7131 -1.55316 -1.80159
upperback 8.43758 -2.08852 0.699334
thorax 2.36185 -1.09337 1.93378
lowerneck 8.23683 3.03534 -9.08612
upperneck -1.73148 3.6835 12.3426
head -2.27413 1.5599 5.07025
rclavicle -1.50082e-014 1.07344e-014
rhumerus 58.0565 -8.54387 -33.1259
rradius 71.4942
rwrist -4.23295
rhand 18.3642 4.66174
rfingers 7.12502
rthumb 43.0083 -19.5813
lclavicle -1.50082e-014 1.07344e-014
lhumerus 30.6288 -25.1439 51.523
lradius 81.7979
lwrist -44.088
lhand 38.8197 58.5111
lfingers 7.12502
lthumb 61.4098 70.7211
rfemur -40.9812 7.68168 11.5141
rtibia 49.1343
rfoot -7.68536 -12.4708
rtoes -6.48104
lfemur -26.7223 -2.47176 -18.8368
ltibia 55.8915
lfoot -29.5831 10.8335
ltoes -16.6329
